<?xml version="1.0" encoding="UTF-8"?><svg xmlns="http://www.w3.org/2000/svg" xmlns:xlink="http://www.w3.org/1999/xlink" height="433.9" preserveAspectRatio="xMidYMid meet" version="1.0" viewBox="-4.4 -1.6 512.7 433.9" width="512.7" zoomAndPan="magnify"><g id="change1_1"><path d="M496.886,310.198c-5.684-26.658-18.737-51.263-36.758-69.283c-37.172-37.172-42.17-73.524-49.087-123.838 c-2.374-17.272-5.066-36.849-9.413-58.356c-5.463-27.025-22.891-45.695-50.399-53.993c-20.905-6.304-46.771-6.303-72.839,0.006 c-24.512,5.933-45.916,16.68-58.723,29.488c-15.865,15.865-19.05,35.688-21.859,53.178c-4.271,26.592-7.658,47.595-53.274,42.728 c-67.983-7.25-112.785,1.485-133.171,25.961c-15.73,18.885-11.372,41.366-8.768,50.154c6.809,22.979,25.918,30.842,44.398,38.445 c20.577,8.466,40.013,16.463,42.734,44.135c2.222,22.591,12.407,41.017,29.454,53.286c23.673,17.039,59.295,21.254,100.311,11.863 c34.728-7.951,52.133,7.967,74.166,28.12c22.867,20.917,51.327,46.951,109.58,50.047c2.409,0.127,4.778,0.192,7.116,0.192 c38.203-0.002,66.714-17.031,80.716-48.446C500.459,362.818,502.524,336.65,496.886,310.198z M489.252,383.073 c-14.497,32.531-45.001,49.272-85.907,47.075c-57.54-3.058-84.529-27.746-108.341-49.527c-17.775-16.26-33.551-30.692-58.555-30.692 c-5.341,0-11.107,0.659-17.4,2.1c-40.446,9.258-75.502,5.162-98.702-11.538c-16.569-11.925-26.471-29.859-28.636-51.864 c-2.839-28.864-23.743-37.465-43.959-45.783c-18.047-7.426-36.708-15.103-43.246-37.169c-2.513-8.481-6.726-30.167,8.389-48.313 c19.653-23.595,65.103-32.329,131.428-25.255c47.506,5.068,51.19-17.852,55.452-44.393c2.762-17.192,5.892-36.677,21.3-52.086 c12.556-12.556,33.617-23.112,57.782-28.961c25.727-6.227,51.225-6.238,71.795-0.034c26.762,8.073,43.714,26.22,49.022,52.481 c4.335,21.445,7.022,40.989,9.393,58.232c6.969,50.699,12.006,87.329,49.652,124.975 C494.893,278.497,508.305,340.322,489.252,383.073z M449.254,239.593c-35.231-35.231-39.968-69.688-46.524-117.378 c-2.252-16.377-4.803-34.938-8.925-55.33c-5.184-25.641-21.719-43.356-47.819-51.229c-19.824-5.98-44.358-5.979-69.084,0.004 c-23.248,5.626-43.549,15.821-55.698,27.97c-15.053,15.053-18.073,33.856-20.738,50.446c-4.046,25.184-7.255,45.071-50.451,40.467 c-64.468-6.872-106.961,1.412-126.303,24.632c-14.928,17.923-10.792,39.257-8.322,47.597c6.463,21.81,24.591,29.27,42.123,36.484 c19.494,8.021,37.906,15.596,40.483,41.799c2.108,21.434,11.772,38.916,27.946,50.558c22.455,16.163,56.245,20.159,95.145,11.254 c32.897-7.534,49.391,7.552,70.268,26.648c21.687,19.837,48.676,44.526,103.924,47.463c2.286,0.121,4.532,0.182,6.75,0.181 c36.24-0.002,63.29-16.158,76.572-45.962c8.905-19.981,10.863-44.803,5.515-69.892C478.727,280.022,466.345,256.685,449.254,239.593 z M476.782,374.386c-13.736,30.822-42.639,46.68-81.397,44.602c-54.534-2.899-80.115-26.297-102.684-46.943 c-16.861-15.423-31.822-29.112-55.546-29.112c-5.068,0-10.54,0.626-16.512,1.993c-38.335,8.775-71.552,4.894-93.535-10.929 c-15.697-11.298-25.077-28.288-27.128-49.136c-2.694-27.395-22.527-35.556-41.707-43.447c-17.099-7.036-34.78-14.311-40.972-35.207 c-2.38-8.033-6.371-28.571,7.942-45.756c18.622-22.356,61.69-30.626,124.56-23.926c45.086,4.811,48.585-16.944,52.63-42.131 c2.618-16.292,5.583-34.756,20.18-49.353c11.897-11.897,31.856-21.9,54.759-27.443c24.382-5.9,48.545-5.913,68.04-0.032 c25.353,7.647,41.412,24.839,46.44,49.716c4.11,20.331,6.656,38.859,8.904,55.206c6.61,48.075,11.385,82.811,47.089,118.515 C482.127,275.283,494.837,333.872,476.782,374.386z M394.419,127.352c-2.128-15.481-4.541-33.026-8.436-52.303 c-4.903-24.258-20.546-41.016-45.236-48.464c-18.749-5.655-41.95-5.655-65.33,0.003c-21.984,5.321-41.184,14.962-52.674,26.453 c-14.241,14.241-17.097,32.024-19.618,47.713c-3.82,23.777-6.848,42.551-47.629,38.205c-60.959-6.504-101.14,1.339-119.434,23.301 c-14.129,16.963-10.215,37.15-7.877,45.042c6.116,20.64,23.264,27.696,39.848,34.52c18.411,7.575,35.8,14.73,38.233,39.466 c1.994,20.276,11.137,36.814,26.438,47.827c21.238,15.287,53.194,19.069,89.977,10.647c31.08-7.111,46.652,7.137,66.372,25.176 c20.506,18.757,46.025,42.1,98.266,44.877c2.162,0.115,4.287,0.171,6.385,0.171c34.277-0.001,59.862-15.283,72.426-43.475 c8.423-18.898,10.275-42.372,5.217-66.1c-5.096-23.908-16.805-45.976-32.968-62.14C405.092,204.984,400.615,172.421,394.419,127.352 z M464.312,365.701c-12.975,29.111-40.257,44.082-76.887,42.125c-51.528-2.738-75.7-24.849-97.026-44.357 c-15.947-14.587-30.098-27.534-52.537-27.534c-4.795,0-9.973,0.592-15.624,1.886c-36.22,8.29-67.602,4.625-88.37-10.322 c-14.823-10.67-23.683-26.716-25.619-46.405c-2.55-25.929-21.313-33.648-39.458-41.114c-16.15-6.646-32.85-13.517-38.695-33.243 c-2.247-7.585-6.015-26.978,7.498-43.201c17.59-21.118,58.291-28.927,117.69-22.596c42.672,4.554,45.978-16.033,49.808-39.87 c2.472-15.391,5.274-32.836,19.059-46.621c11.239-11.239,30.096-20.688,51.735-25.925c23.04-5.577,45.868-5.587,64.286-0.032 c23.944,7.223,39.11,23.459,43.859,46.952c3.884,19.215,6.292,36.728,8.416,52.179c6.249,45.454,10.764,78.296,44.526,112.057 C469.361,272.07,481.371,327.425,464.312,365.701z M386.108,132.49c-2.005-14.584-4.278-31.114-7.948-49.276 c-4.624-22.874-19.374-38.678-42.655-45.701c-17.673-5.33-39.541-5.329-61.576,0.002c-20.722,5.015-38.818,14.104-49.65,24.936 c-13.429,13.429-16.122,30.191-18.497,44.979c-3.591,22.369-6.441,40.033-44.806,35.945c-57.449-6.128-95.319,1.266-112.565,21.973 c-13.327,16.001-9.636,35.042-7.431,42.485c5.769,19.471,21.937,26.123,37.572,32.557c17.328,7.129,33.694,13.863,35.983,37.131 c1.88,19.118,10.501,34.712,24.931,45.098c20.022,14.411,50.138,17.977,84.812,10.04c29.241-6.692,43.907,6.72,62.474,23.703 c19.324,17.676,43.373,39.675,92.609,42.293c2.036,0.108,4.042,0.161,6.018,0.161c32.318,0,56.436-14.41,68.282-40.992 c7.939-17.814,9.686-39.941,4.919-62.305c-4.804-22.534-15.84-43.333-31.074-58.568C396.16,205.606,391.944,174.937,386.108,132.49z M451.842,357.013c-12.212,27.401-37.911,41.488-72.377,39.652c-48.523-2.579-71.286-23.401-91.37-41.772 c-15.031-13.749-28.372-25.954-49.528-25.954c-4.523,0-9.405,0.558-14.736,1.779c-34.102,7.805-63.652,4.356-83.203-9.715 c-13.952-10.041-22.29-25.145-24.113-43.676c-2.406-24.461-20.097-31.74-37.206-38.779c-15.203-6.256-30.922-12.723-36.42-31.28 c-2.115-7.136-5.66-25.382,7.051-40.644c16.558-19.879,54.877-27.234,110.822-21.267c40.272,4.298,43.373-15.124,46.985-37.609 c2.328-14.49,4.966-30.914,17.939-43.887c20.815-20.814,71.956-35.687,109.241-24.439c22.536,6.798,36.809,22.078,41.278,44.188 c3.658,18.1,5.927,34.597,7.928,49.152c5.889,42.832,10.143,73.779,41.963,105.599C456.595,268.857,467.903,320.976,451.842,357.013 z M377.797,137.628c-1.882-13.688-4.014-29.202-7.46-46.249c-4.344-21.491-18.202-36.339-40.075-42.937 c-16.598-5.008-37.131-5.005-57.821,0c-19.457,4.71-36.451,13.245-46.625,23.419c-12.618,12.617-15.146,28.359-17.378,42.248 c-3.366,20.96-6.025,37.509-41.983,33.682c-53.938-5.753-89.495,1.194-105.695,20.642c-12.528,15.04-9.059,32.934-6.986,39.93 c5.423,18.302,20.61,24.551,35.297,30.594c16.244,6.684,31.587,12.996,33.732,34.798c1.766,17.96,9.866,32.611,23.423,42.368 c18.806,13.534,47.091,16.883,79.645,9.431c27.411-6.277,41.167,6.305,58.578,22.231c18.143,16.596,40.723,37.251,86.952,39.708 c1.912,0.101,3.796,0.152,5.651,0.152c30.356,0,53.01-13.536,64.139-38.507c7.457-16.731,9.097-37.51,4.62-58.512 c-4.51-21.16-14.874-40.692-29.179-54.998C387.228,206.226,383.272,177.453,377.797,137.628z M439.372,348.328 c-11.45,25.69-35.545,38.889-67.866,37.176c-45.516-2.419-66.871-21.953-85.712-39.188c-14.116-12.913-26.646-24.374-46.519-24.374 c-4.251,0-8.838,0.524-13.848,1.671c-31.991,7.321-59.704,4.087-78.036-9.108c-13.079-9.413-20.896-23.572-22.605-40.945 c-2.262-22.993-18.882-29.832-34.955-36.446c-14.254-5.864-28.994-11.929-34.145-29.318c-1.981-6.688-5.305-23.788,6.606-38.089 c15.526-18.64,51.476-25.531,103.953-19.937c37.846,4.04,40.767-14.215,44.163-35.346c2.183-13.591,4.656-28.994,16.818-41.155 c19.521-19.521,67.488-33.47,102.462-22.921c21.126,6.373,34.508,20.697,38.697,41.425c3.434,16.985,5.562,32.466,7.439,46.125 c5.528,40.21,9.522,69.262,39.4,99.139C443.828,265.643,454.435,314.528,439.372,348.328z M369.487,142.767 c-1.759-12.792-3.753-27.291-6.972-43.223c-4.064-20.108-17.029-33.999-37.492-40.172c-34.304-10.349-79.004,3.236-97.668,21.901 c-11.806,11.806-14.17,26.527-16.256,39.515c-2.834,17.642-5.125,31.94-30.184,31.938c-2.714,0-5.699-0.168-8.976-0.517 c-50.425-5.377-83.675,1.122-98.828,19.313c-11.726,14.078-8.48,30.825-6.541,37.373c5.077,17.132,19.283,22.978,33.023,28.631 c15.161,6.238,29.481,12.131,31.481,32.463c1.653,16.803,9.23,30.509,21.914,39.638c17.589,12.66,44.039,15.796,74.479,8.825 c25.584-5.856,38.424,5.889,54.681,20.759c16.961,15.516,38.071,34.825,81.294,37.123c1.789,0.094,3.55,0.142,5.286,0.142 c28.393,0,49.584-12.663,59.995-36.022c6.972-15.646,8.507-35.079,4.321-54.717c-4.218-19.785-13.908-38.049-27.286-51.426 C378.296,206.847,374.601,179.969,369.487,142.767z M426.902,339.641c-10.687,23.981-33.171,36.318-63.356,34.702 c-42.51-2.259-62.457-20.505-80.055-36.602c-13.201-12.076-24.919-22.795-43.509-22.795c-3.977,0-8.271,0.49-12.96,1.564 c-29.871,6.839-55.752,3.821-72.871-8.501c-12.206-8.786-19.5-22-21.095-38.216c-2.117-21.525-17.667-27.924-32.706-34.111 c-13.306-5.474-27.065-11.136-31.87-27.355c-1.849-6.24-4.949-22.192,6.161-35.531c14.492-17.402,48.065-23.837,97.084-18.608 c3.347,0.357,6.397,0.528,9.187,0.527c26.748-0.002,29.275-15.702,32.152-33.612c2.038-12.69,4.348-27.074,15.698-38.423 c18.232-18.23,63.028-31.251,95.684-21.403c19.717,5.949,32.206,19.317,36.115,38.66c3.208,15.871,5.197,30.337,6.952,43.1 c5.168,37.588,8.901,64.745,36.836,92.679C431.061,262.431,440.968,308.079,426.902,339.641z M361.176,147.905 c-1.636-11.896-3.489-25.38-6.484-40.197c-3.785-18.725-15.858-31.661-34.914-37.41c-31.919-9.627-73.518,3.013-90.886,20.383 c-10.994,10.994-13.195,24.695-15.136,36.783c-2.914,18.145-5.223,32.475-36.338,29.159c-46.912-5.007-77.853,1.047-91.958,17.984 c-10.926,13.117-7.902,28.717-6.095,34.816c4.73,15.963,17.956,21.406,30.747,26.668c14.077,5.793,27.374,11.264,29.23,30.129 c1.539,15.645,8.595,28.408,20.406,36.909c16.372,11.782,40.986,14.702,69.313,8.217c23.755-5.439,35.682,5.473,50.783,19.287 c15.781,14.435,35.42,32.4,75.638,34.538c1.665,0.089,3.304,0.132,4.92,0.132c26.431-0.001,46.157-11.789,55.85-33.538 c6.49-14.562,7.919-32.647,4.022-50.923c-3.925-18.411-12.942-35.406-25.391-47.855C369.365,207.469,365.93,182.485,361.176,147.905 z M414.432,330.955c-9.926,22.27-30.815,33.718-58.845,32.226c-39.505-2.099-58.043-19.056-74.398-34.018 c-12.287-11.24-23.191-21.216-40.502-21.216c-3.704,0-7.704,0.457-12.071,1.457c-27.759,6.354-51.805,3.551-67.704-7.893 c-11.333-8.157-18.106-20.428-19.588-35.486c-1.973-20.057-16.452-26.015-30.455-31.777c-12.357-5.084-25.136-10.342-29.595-25.392 c-1.716-5.792-4.595-20.597,5.715-32.976c13.461-16.163,44.662-22.138,90.216-17.277c33.002,3.525,35.558-12.395,38.516-30.823 c1.894-11.79,4.041-25.152,14.578-35.691c16.936-16.937,58.556-29.037,88.903-19.884c18.308,5.523,29.905,17.936,33.535,35.897 c2.983,14.755,4.832,28.207,6.464,40.074c4.807,34.965,8.281,60.227,34.273,86.219C418.295,259.217,427.501,301.631,414.432,330.955 z M352.865,153.043c-1.513-11-3.227-23.469-5.996-37.171c-3.506-17.342-14.686-29.321-32.333-34.644 c-29.539-8.912-68.032,2.79-84.107,18.865c-10.182,10.181-12.219,22.863-14.016,34.05c-2.689,16.738-4.82,29.956-33.516,26.897 c-43.404-4.631-72.03,0.975-85.09,16.654c-10.125,12.156-7.324,26.61-5.65,32.26c4.384,14.794,16.629,19.833,28.472,24.705 c12.994,5.347,25.269,10.397,26.98,27.795c1.425,14.488,7.96,26.306,18.898,34.179c15.154,10.906,37.932,13.61,64.146,7.61 c21.931-5.019,32.941,5.059,46.887,17.814c14.598,13.355,32.768,29.975,69.98,31.954c1.542,0.082,3.057,0.123,4.553,0.123 c24.468-0.001,42.732-10.917,51.706-31.054c6.007-13.479,7.329-30.216,3.725-47.129c-3.632-17.037-11.977-32.764-23.497-44.284 C360.432,208.09,357.259,185.001,352.865,153.043z M401.961,322.268c-9.164,20.562-28.452,31.13-54.335,29.752 c-36.498-1.94-53.628-17.609-68.741-31.433c-11.372-10.402-21.467-19.636-37.492-19.636c-3.432,0-7.137,0.423-11.183,1.35 c-25.645,5.869-47.855,3.285-62.539-7.286c-10.46-7.529-16.711-18.855-18.079-32.756c-1.829-18.59-15.237-24.107-28.205-29.442 c-11.409-4.695-23.207-9.549-27.32-23.43c-1.584-5.343-4.239-19.002,5.27-30.419c12.43-14.922,41.25-20.435,83.347-15.949 c30.592,3.267,32.951-11.487,35.695-28.562c1.749-10.89,3.731-23.231,13.457-32.957c15.644-15.645,54.09-26.823,82.123-18.367 c16.9,5.098,27.605,16.556,30.955,33.133c2.758,13.64,4.467,26.076,5.975,37.048c4.446,32.343,7.659,55.71,31.709,79.76 C405.528,256.004,414.034,295.182,401.961,322.268z M344.554,158.18c-1.389-10.104-2.964-21.556-5.508-34.143 c-3.226-15.958-13.514-26.982-29.751-31.881c-27.157-8.19-62.549,2.567-77.329,17.346c-9.37,9.37-11.243,21.03-12.895,31.317 c-2.299,14.313-4.021,25.058-23.419,25.056c-2.19,0-4.608-0.137-7.274-0.421c-39.891-4.254-66.207,0.902-78.221,15.325 c-9.323,11.194-6.745,24.502-5.204,29.704c4.037,13.625,15.303,18.26,26.196,22.742c11.912,4.901,23.163,9.531,24.73,25.461 c1.311,13.33,7.325,24.205,17.39,31.45c13.937,10.031,34.881,12.519,58.98,7.003c20.099-4.6,30.197,4.642,42.988,16.342 c13.419,12.275,30.118,27.55,64.324,29.368c1.417,0.075,2.811,0.113,4.188,0.112c22.505-0.001,39.305-10.043,47.562-28.569 c11.577-25.975,3.762-62.109-18.176-84.047C351.501,208.711,348.587,187.515,344.554,158.18z M389.492,313.581 c-8.402,18.851-26.077,28.543-49.825,27.278c-33.492-1.78-49.213-16.16-63.084-28.848c-10.458-9.566-19.738-18.056-34.482-18.056 c-3.159,0-6.571,0.39-10.296,1.243c-23.531,5.385-43.906,3.013-57.372-6.678c-9.587-6.901-15.317-17.284-16.571-30.028 c-1.685-17.123-14.023-22.198-25.954-27.108c-10.462-4.304-21.278-8.755-25.044-21.467c-1.45-4.895-3.883-17.408,4.825-27.862 c11.397-13.685,37.841-18.739,76.478-14.62c28.168,3.003,30.346-10.576,32.872-26.3c1.605-9.989,3.423-21.31,12.337-30.224 c14.352-14.351,49.62-24.607,75.345-16.847c15.49,4.673,25.302,15.174,28.373,30.368c2.532,12.526,4.102,23.944,5.487,34.02 c4.086,29.72,7.039,51.194,29.146,73.302C392.763,252.789,400.567,288.733,389.492,313.581z M336.243,163.319 c-1.266-9.209-2.701-19.645-5.019-31.117c-2.946-14.575-12.342-24.644-27.17-29.117c-24.781-7.475-57.067,2.344-70.55,15.828 c-8.559,8.558-10.267,19.197-11.776,28.585c-2.324,14.466-4.013,24.911-27.87,22.373c-36.381-3.881-60.385,0.83-71.351,13.994 c-8.523,10.234-6.168,22.396-4.759,27.149c3.69,12.455,13.976,16.687,23.922,20.779c10.828,4.455,21.056,8.664,22.479,23.126 c1.197,12.172,6.689,22.103,15.882,28.719c12.721,9.157,31.833,11.426,53.812,6.395c18.268-4.182,27.456,4.226,39.092,14.87 c12.238,11.194,27.466,25.125,58.666,26.784c1.294,0.068,2.565,0.102,3.822,0.102c20.542-0.001,35.879-9.17,43.417-26.084 c10.564-23.7,3.436-56.666-16.58-76.682C342.57,209.332,339.916,190.032,336.243,163.319z M377.022,304.895 c-7.641,17.141-23.746,25.962-45.315,24.802c-30.487-1.62-44.798-14.712-57.426-26.263c-9.543-8.729-18.014-16.478-31.474-16.478 c-2.886,0-6.003,0.356-9.408,1.136c-21.416,4.902-39.956,2.746-52.204-6.07c-8.716-6.272-13.923-15.712-15.063-27.297 c-1.54-15.655-12.808-20.291-23.704-24.774c-9.951-4.094-19.349-7.962-22.769-19.503c-1.318-4.446-3.528-15.813,4.38-25.308 c10.366-12.445,34.435-17.039,69.608-13.289c25.744,2.748,27.742-9.666,30.05-24.038c1.459-9.089,3.114-19.39,11.216-27.493 c13.061-13.06,45.155-22.391,68.566-15.329c14.082,4.248,23.001,13.794,25.792,27.605c2.306,11.41,3.737,21.814,4.999,30.993 c3.725,27.099,6.418,46.678,26.583,66.843C379.997,249.576,387.098,282.285,377.022,304.895z M327.932,168.456 c-1.143-8.312-2.438-17.734-4.531-28.09c-2.666-13.191-11.17-22.304-24.589-26.352c-22.393-6.757-51.581,2.12-63.771,14.31 c-7.747,7.746-9.291,17.365-10.654,25.852c-2.089,13.003-3.596,22.393-25.048,20.112c-32.866-3.505-54.563,0.756-64.482,12.666 c-7.723,9.272-5.589,20.287-4.314,24.592c3.344,11.285,12.648,15.114,21.646,18.816c9.746,4.01,18.95,7.797,20.229,20.792 c1.084,11.014,6.054,20.001,14.375,25.99c11.504,8.281,28.783,10.336,48.646,5.788c16.434-3.76,24.715,3.81,35.196,13.398 c11.056,10.113,24.815,22.699,53.009,24.198c1.169,0.061,2.32,0.092,3.454,0.092c18.582,0,32.455-8.296,39.275-23.6 c9.548-21.426,3.107-51.225-14.985-69.316C333.637,209.953,331.244,192.547,327.932,168.456z M364.552,296.208 c-6.877,15.432-21.375,23.369-40.804,22.329c-27.481-1.46-40.385-13.264-51.77-23.678c-8.628-7.893-16.287-14.899-28.464-14.899 c-2.614,0-5.436,0.323-8.519,1.029c-19.303,4.418-36.007,2.478-47.038-5.463c-7.843-5.645-12.53-14.14-13.557-24.568 c-1.395-14.187-11.592-18.382-21.453-22.439c-8.959-3.687-17.42-7.168-20.493-17.54c-1.185-3.998-3.173-14.218,3.934-22.751 c9.334-11.206,31.029-15.341,62.74-11.96c23.324,2.493,25.136-8.756,27.227-21.776c1.315-8.188,2.805-17.469,10.096-24.759 c11.767-11.767,40.69-20.173,61.788-13.812c12.672,3.824,20.699,12.413,23.211,24.84c2.082,10.295,3.371,19.684,4.51,27.966 c3.366,24.476,5.796,42.16,24.02,60.384C367.23,246.362,373.631,275.836,364.552,296.208z M319.621,173.594 c-1.019-7.416-2.175-15.821-4.043-25.063c-2.387-11.809-9.998-19.965-22.009-23.588c-20.011-6.041-46.096,1.897-56.991,12.791 c-6.934,6.934-8.316,15.533-9.535,23.119c-1.853,11.541-3.192,19.874-22.225,17.85c-29.36-3.132-48.741,0.683-57.614,11.336 c-6.922,8.311-5.011,18.179-3.868,22.036c2.998,10.116,11.321,13.541,19.371,16.853c8.663,3.564,16.844,6.931,17.979,18.458 c0.97,9.856,5.419,17.9,12.867,23.26c10.287,7.404,25.726,9.244,43.479,5.18c14.614-3.344,21.974,3.395,31.299,11.925 c9.875,9.033,22.164,20.274,47.352,21.613c1.046,0.055,2.075,0.083,3.089,0.083c16.619,0,29.027-7.423,35.129-21.115 c8.535-19.15,2.779-45.784-13.388-61.951C324.706,210.574,322.574,195.063,319.621,173.594z M352.082,287.523 c-6.114,13.721-19.01,20.774-36.294,19.852c-24.474-1.301-35.97-11.816-46.112-21.092c-7.714-7.056-14.56-13.319-25.456-13.319 c-2.34,0-4.868,0.29-7.632,0.922c-17.182,3.935-32.054,2.21-41.871-4.856c-6.969-5.016-11.136-12.567-12.048-21.837 c-1.251-12.72-10.377-16.475-19.202-20.106c-7.967-3.278-15.492-6.374-18.219-15.577c-1.051-3.549-2.818-12.624,3.489-20.194 c8.302-9.966,27.623-13.642,55.871-10.631c20.923,2.233,22.532-7.846,24.404-19.515c1.171-7.289,2.498-15.549,8.976-22.027 c10.477-10.476,36.228-17.957,55.008-12.293c7.855,2.37,17.81,8.123,20.63,22.077c1.856,9.179,3.007,17.553,4.022,24.939 c3.005,21.854,5.176,37.644,21.457,53.925C354.464,243.15,360.164,269.387,352.082,287.523z M311.311,178.732 c-0.896-6.519-1.912-13.91-3.554-22.036c-2.108-10.426-8.825-17.627-19.428-20.825c-17.628-5.319-40.612,1.673-50.212,11.273 c-6.122,6.122-7.34,13.701-8.414,20.387c-1.619,10.079-2.804,17.355-19.403,15.589c-25.849-2.757-42.918,0.611-50.743,10.006 c-6.122,7.349-4.434,16.07-3.424,19.48c2.651,8.947,9.994,11.968,17.095,14.89c7.579,3.119,14.739,6.064,15.728,16.124 c0.855,8.699,4.783,15.798,11.358,20.531c9.07,6.527,22.678,8.152,38.314,4.572c12.774-2.922,19.231,2.978,27.4,10.454 c8.694,7.952,19.514,17.849,41.695,19.028c0.921,0.049,1.829,0.073,2.723,0.073c14.657,0,25.602-6.549,30.986-18.63 c7.521-16.876,2.451-40.342-11.792-54.586C315.774,211.195,313.902,197.579,311.311,178.732z M339.612,278.835 c-5.352,12.011-16.624,18.181-31.783,17.378c-21.469-1.141-31.556-10.367-40.455-18.508c-6.799-6.22-12.834-11.741-22.446-11.741 c-2.068,0-4.301,0.256-6.744,0.815c-15.069,3.448-28.107,1.942-36.706-4.248c-6.097-4.388-9.742-10.996-10.539-19.108 c-1.106-11.252-9.162-14.566-16.952-17.771c-6.974-2.87-13.563-5.58-15.943-13.614c-0.919-3.101-2.462-11.029,3.044-17.639 c7.27-8.728,24.216-11.944,49.001-9.3c18.496,1.975,19.993-7.367,21.582-17.253c1.026-6.388,2.19-13.628,7.856-19.295 c9.184-9.183,31.761-15.741,48.229-10.775c6.872,2.074,15.583,7.108,18.05,19.313c1.63,8.065,2.642,15.421,3.534,21.912 c2.645,19.232,4.554,33.128,18.894,47.466C341.698,239.937,346.697,262.938,339.612,278.835z M303,183.87 c-0.773-5.624-1.649-11.998-3.066-19.01c-1.828-9.041-7.653-15.287-16.846-18.06c-15.25-4.6-35.129,1.449-43.434,9.754 c-5.311,5.311-6.364,11.869-7.293,17.655c-1.384,8.615-2.393,14.833-16.581,13.327c-22.335-2.382-37.096,0.536-43.875,8.676 c-5.321,6.388-3.855,13.963-2.978,16.924c2.305,7.778,8.668,10.395,14.821,12.927c6.496,2.673,12.632,5.197,13.477,13.789 c0.741,7.541,4.148,13.697,9.85,17.801c7.854,5.653,19.627,7.064,33.148,3.966c10.951-2.506,16.488,2.563,23.505,8.981 c7.512,6.872,16.861,15.424,36.037,16.444c0.798,0.042,1.583,0.063,2.357,0.063c12.694-0.001,22.175-5.676,26.841-16.146 c6.507-14.6,2.123-34.901-10.196-47.221C306.842,211.817,305.23,200.093,303,183.87z M327.141,270.15 c-4.591,10.301-14.269,15.609-27.273,14.903c-18.463-0.98-27.141-8.919-34.798-15.923c-5.884-5.382-11.107-10.16-19.438-10.16 c-1.795,0-3.734,0.222-5.855,0.707c-12.958,2.965-24.157,1.672-31.541-3.641c-5.223-3.76-8.347-9.424-9.031-16.379 c-0.962-9.784-7.947-12.658-14.702-15.437c-5.983-2.462-11.635-4.787-13.669-11.651c-0.786-2.654-2.107-9.434,2.599-15.083 c4.349-5.223,15.194-10.846,42.132-7.97c16.074,1.716,17.379-6.401,18.76-14.992c0.881-5.487,1.88-11.707,6.735-16.561 c7.892-7.891,27.297-13.526,41.449-9.255c5.891,1.776,13.355,6.09,15.469,16.548c1.405,6.95,2.277,13.291,3.046,18.886 c2.284,16.609,3.934,28.61,16.331,41.007C328.931,236.723,333.23,256.49,327.141,270.15z" fill="#FFF"/></g></svg>