<?xml version="1.0" encoding="UTF-8" standalone="no"?><svg xmlns="http://www.w3.org/2000/svg" xmlns:xlink="http://www.w3.org/1999/xlink" fill="#ffffff" height="448" preserveAspectRatio="xMidYMid meet" version="1" viewBox="38.3 32.0 435.5 448.0" width="435.5" zoomAndPan="magnify"><g id="change1_1"><path d="M316.39258,95.0459a9.158,9.158,0,1,1-9.15772-9.15137A9.16489,9.16489,0,0,1,316.39258,95.0459Zm-9.15772,20.97021a9.15162,9.15162,0,1,0,9.15772,9.15137A9.1653,9.1653,0,0,0,307.23486,116.01611Zm8.38233,213.45948-.25928,120.38232V457a23.02619,23.02619,0,0,1-23,23H61.25049a23.02619,23.02619,0,0,1-23-23V54.31543c0-12.30469,10.31787-22.31543,23-22.31543H292.35791c12.68213,0,23,10.01074,23,22.31543,0,.07727-.00928.1521-.01147.22876.00293.15222.01147.303.01147.45581V66.45215a8,8,0,1,1-16,0V55a7.00787,7.00787,0,0,0-7-7H248.75928c-.073.08032-.13892.16455-.21582.24268L222.59033,74.6084A18.1126,18.1126,0,0,1,209.76221,79.981H138.97266a17.90944,17.90944,0,0,1-14.07715-6.78223L104.81592,48H61.25049a7.00786,7.00786,0,0,0-7,7V372.00928c0,3.48242,3.14013,6.31543,7,6.31543H292.35791c3.85986,0,7-2.833,7-6.31543,0-.10007.16761-.00474.25928-42.56787a8.00009,8.00009,0,0,1,7.99951-7.98291h.01758A8.00011,8.00011,0,0,1,315.61719,329.47559ZM226.33105,48H125.27393L137.4082,63.22754c.93525,1.17205.0063.75342,72.354.75342C210.96,63.981,210.20371,64.38371,226.33105,48Zm73.02686,401.84082.12195-56.61645a23.54405,23.54405,0,0,1-7.12195,1.10034H61.25049a23.551,23.551,0,0,1-7-1.06031V457a7.00786,7.00786,0,0,0,7,7H292.35791a7.00787,7.00787,0,0,0,7-7Zm-98.59668-19.95557a21.95532,21.95532,0,1,1-21.95557-21.95507A21.9803,21.9803,0,0,1,200.76123,429.88525Zm-16,0a5.95532,5.95532,0,1,0-5.95557,5.95557A5.96217,5.96217,0,0,0,184.76123,429.88525ZM268.31006,147.939a13.98968,13.98968,0,0,0-13.97412-13.97412H230.439a8,8,0,0,0,0,16h21.8711v21.8711a8,8,0,1,0,16,0Zm-175.01172,31.897a7.99977,7.99977,0,0,0,8-8v-21.8711h21.87109a8,8,0,0,0,0-16H99.273A13.9901,13.9901,0,0,0,85.29834,147.939v23.897A7.99977,7.99977,0,0,0,93.29834,179.83594Zm-8,128.48974A13.99009,13.99009,0,0,0,99.273,322.2998h23.89648a8,8,0,1,0,0-16H101.29834V284.42871a8,8,0,0,0-16,0ZM230.439,322.2998h23.897a13.98968,13.98968,0,0,0,13.97412-13.97412v-23.897a8,8,0,0,0-16,0V306.2998H230.439a8,8,0,1,0,0,16Zm-70.79-69.92089a7.99975,7.99975,0,0,0,14.55273-6.64844L149.478,191.61572A7.99986,7.99986,0,0,0,135,191.45605L108.81934,245.5708a8.00009,8.00009,0,1,0,14.40332,6.96777l18.772-38.80078ZM220.042,215.8833a13.80032,13.80032,0,0,0-3.71142,21.27783l15.2749,17.20508a8.0001,8.0001,0,1,0,11.96484-10.62305l-13.521-15.22949c21.66745-14.41242,15.74437-50.674-35.6084-41.44775a8.0001,8.0001,0,0,0-6.58594,7.874v54.11475a8,8,0,0,0,16,0V202.01318c6.47417-.47941,21.64961-.56608,21.9585,5.91846C225.916,210.09082,224.46631,213.46875,220.042,215.8833Zm159.105,2.18457,86.60272-49.99969L383.147,120.37744a8.00171,8.00171,0,0,0-8,0l-82.60266,47.69068Zm-8,13.85663-86.60254-49.99988v95.381a8.00072,8.00072,0,0,0,4,6.92823L371.147,331.9245Zm16,0v100l82.60254-47.69061a8.0007,8.0007,0,0,0,4-6.92823V181.92474Z"/></g></svg>